<svg xmlns="http://www.w3.org/2000/svg" width="550.801" height="550.801"><path d="M160.38 282.225c0-14.832-10.298-23.684-28.473-23.684-7.414 0-12.437.716-15.07 1.433V307.6c3.113.707 6.94.95 12.19.95 19.392 0 31.354-9.81 31.354-26.325zM272.875 259.02c-8.145 0-13.397.716-16.52 1.434v105.523c3.117.73 8.143.73 12.69.73 33.018.23 54.555-17.947 54.555-56.475.242-33.513-19.385-51.213-50.725-51.213z"/><path d="M488.426 197.02H475.2v-63.817c0-.398-.063-.8-.116-1.202-.02-2.533-.827-5.022-2.562-6.994L366.325 3.694c-.032-.03-.063-.042-.085-.076-.633-.707-1.37-1.295-2.15-1.804-.232-.155-.465-.285-.707-.42-.676-.368-1.393-.674-2.13-.895-.2-.057-.38-.14-.58-.19-.803-.19-1.636-.31-2.48-.31H97.2C85.282 0 75.6 9.693 75.6 21.6v175.414H62.377c-17.05 0-30.873 13.818-30.873 30.873v160.545c0 17.043 13.824 30.87 30.873 30.87H75.6V529.2c0 11.907 9.683 21.6 21.6 21.6h356.4c11.908 0 21.6-9.692 21.6-21.6V419.302h13.227c17.044 0 30.87-13.827 30.87-30.87v-160.54c0-17.054-13.827-30.873-30.87-30.873zM97.2 21.604h250.193v110.513c0 5.967 4.84 10.8 10.8 10.8H453.6v54.108H97.2V21.606zm265.16 287.418c0 30.876-11.244 52.165-26.82 65.333-16.972 14.117-42.82 20.814-74.397 20.814-18.9 0-32.297-1.197-41.4-2.39V234.366c13.398-2.15 30.877-3.346 49.303-3.346 30.612 0 50.478 5.507 66.04 17.225 16.742 12.445 27.273 32.302 27.273 60.778zM80.7 393.5V234.364c11.24-1.904 27.042-3.346 49.296-3.346 22.49 0 38.527 4.307 49.29 12.927 10.293 8.13 17.216 21.534 17.216 37.328 0 15.8-5.25 29.198-14.83 38.285-12.44 11.728-30.864 16.996-52.406 16.996-4.778 0-9.1-.243-12.435-.723v57.67H80.7v-.004zm372.9 129.853H97.2v-104.05h356.4v104.05zM484.9 262.127h-61.99v36.85h57.914v29.675H422.91V393.5h-36.594V232.216h98.582v29.91z"/></svg>